<?xml version="1.0" encoding="UTF-8" standalone="no"?>
<svg width="22px" height="22px" viewBox="0 0 22 22" version="1.1" xmlns="http://www.w3.org/2000/svg" xmlns:xlink="http://www.w3.org/1999/xlink" xmlns:sketch="http://www.bohemiancoding.com/sketch/ns">
    <!-- Generator: Sketch 3.3.2 (12043) - http://www.bohemiancoding.com/sketch -->
    <title>Settings ICON</title>
    <desc>Created with Sketch.</desc>
    <defs></defs>
    <g id="Icons-1" stroke="none" stroke-width="1" fill="none" fill-rule="evenodd" sketch:type="MSPage">
        <g id="256" sketch:type="MSArtboardGroup" transform="translate(-117.000000, -117.000000)" fill="#D2D2D2">
            <g id="Settings-ICON" sketch:type="MSLayerGroup" transform="translate(117.000000, 117.000000)">
                <path d="M21.07248,12.99254 C21.48322,12.99254 21.86536,12.65946 21.92124,12.25246 C21.92124,12.25246 21.99978,11.68046 21.99978,11.00022 C21.99978,10.31998 21.92124,9.74798 21.92124,9.74798 C21.86514,9.34076 21.48322,9.0079 21.07248,9.0079 L18.94992,9.0079 C18.53896,9.0079 18.11216,8.74588 18.00172,8.42578 C17.89128,8.10568 17.73926,7.07872 18.02988,6.78832 L19.53028,5.28792 C19.82068,4.9973 19.84312,4.50142 19.58,4.18572 L17.81472,2.42 C17.49902,2.15666 17.00336,2.1791 16.71252,2.46972 L15.21212,3.97012 C14.92172,4.26074 14.4375,4.37778 14.13676,4.23038 C13.8358,4.08298 12.99254,3.46126 12.99254,3.0503 L12.99254,0.92774 C12.99254,0.51678 12.65946,0.13486 12.25246,0.07876 C12.25246,0.07876 11.68046,0 11.00022,0 C10.31998,0 9.74798,0.07876 9.74798,0.07876 C9.34076,0.13464 9.00768,0.51678 9.00768,0.92774 L9.00768,3.0503 C9.00768,3.46126 8.74588,3.88784 8.42556,3.9985 C8.10524,4.10894 7.0785,4.26096 6.78788,3.97034 L5.28748,2.46994 C4.99686,2.17932 4.50098,2.15688 4.1855,2.42 L2.42,4.1855 C2.15666,4.5012 2.1791,4.99708 2.46972,5.2877 L3.9699,6.7881 C4.26052,7.07872 4.37778,7.56272 4.23016,7.86346 C4.08254,8.1642 3.46104,9.00768 3.05008,9.00768 L0.92774,9.00768 C0.51678,9.00768 0.13486,9.34076 0.07876,9.74776 C0.07876,9.74776 0,10.31976 0,11 C0,11.68046 0.07876,12.25224 0.07876,12.25224 C0.13464,12.65946 0.51678,12.99232 0.92774,12.99232 L3.0503,12.99232 C3.46126,12.99232 3.88784,13.25412 3.99828,13.57444 C4.10872,13.89454 4.26074,14.92128 3.97012,15.2119 L2.46994,16.71208 C2.17932,17.0027 2.15688,17.49858 2.42022,17.81428 L4.1855,19.58 C4.5012,19.84312 4.99686,19.8209 5.28748,19.53028 L6.78788,18.02988 C7.0785,17.73948 7.5625,17.62222 7.86346,17.76962 C8.16442,17.91702 9.00768,18.53874 9.00768,18.9497 L9.00768,21.07226 C9.00768,21.483 9.34076,21.86514 9.74798,21.92102 C9.74798,21.92102 10.31976,21.99956 11.00022,21.99956 C11.68068,21.99956 12.25246,21.92102 12.25246,21.92102 C12.65968,21.86492 12.99254,21.483 12.99254,21.07226 L12.99254,18.9497 C12.99254,18.53874 13.25434,18.11194 13.57466,18.0015 C13.89498,17.89106 14.92172,17.73926 15.21234,18.02966 L16.71252,19.53006 C17.00314,19.82046 17.49902,19.8429 17.81472,19.57978 L19.58,17.81472 C19.84312,17.49902 19.8209,17.00336 19.53006,16.71252 L18.02988,15.21234 C17.73926,14.92172 17.622,14.43772 17.76962,14.13676 C17.91702,13.8358 18.53874,12.99254 18.9497,12.99254 L21.07248,12.99254 L21.07248,12.99254 Z M6.97356,11 C6.97356,8.77646 8.77624,6.97356 11,6.97356 C13.22376,6.97356 15.02644,8.77624 15.02644,11 C15.02644,13.22376 13.22376,15.02644 11,15.02644 C8.77624,15.02644 6.97356,13.22398 6.97356,11 Z" id="Shape" sketch:type="MSShapeGroup"></path>
            </g>
        </g>
    </g>
</svg>